<?xml version="1.0" encoding="iso-8859-1"?>
<!-- Generator: Adobe Illustrator 16.0.0, SVG Export Plug-In . SVG Version: 6.00 Build 0)  -->
<!DOCTYPE svg PUBLIC "-//W3C//DTD SVG 1.1//EN" "http://www.w3.org/Graphics/SVG/1.1/DTD/svg11.dtd">
<svg xmlns="http://www.w3.org/2000/svg" xmlns:xlink="http://www.w3.org/1999/xlink" version="1.1" id="Capa_1" x="0px" y="0px" width="512px" height="512px" viewBox="0 0 857.21 857.211" style="enable-background:new 0 0 857.21 857.211;" xml:space="preserve">
<g>
	<g>
		<path d="M553.264,115.944C547.964,51.059,493.789,0,427.518,0C361.26,0,307.071,51.046,301.772,115.944    c-0.225,2.748-2.495,4.875-5.252,4.875H121.112c-9.118,0-16.728,6.959-17.54,16.04L40.815,838.031    c-0.922,10.305,7.195,19.18,17.54,19.18h740.501c10.345,0,18.462-8.875,17.54-19.18l-62.757-701.172    c-0.812-9.081-8.423-16.04-17.54-16.04H558.517C555.76,120.818,553.488,118.692,553.264,115.944z M331.799,112.864    c6.564-46.997,46.91-83.311,95.705-83.311s89.141,36.312,95.717,83.309c0.589,4.214-2.756,7.956-7.011,7.956H338.811    C334.556,120.818,331.211,117.078,331.799,112.864z M565.39,345.578c10.466,8.792,51.149-12.516,59.941-2.049    c8.767,10.437-19.248,46.814-12.382,58.681c6.802,11.758,52.329,5.615,57.037,18.547c4.625,12.705-34.158,37.244-31.771,50.867    c2.319,13.246,47.199,23.078,47.199,36.99c0,13.91-44.88,23.742-47.199,36.99c-2.387,13.621,36.396,38.162,31.771,50.867    c-4.708,12.932-50.235,6.791-57.037,18.547c-6.866,11.867,21.147,48.244,12.381,58.68c-8.792,10.467-49.475-10.84-59.941-2.049    c-10.438,8.766,3.521,52.529-8.348,59.395c-11.757,6.803-42.7-27.102-55.633-22.393c-12.706,4.625-14.603,50.527-28.225,52.914    c-13.246,2.32-30.669-40.141-44.58-40.141s-31.333,42.461-44.58,40.141c-13.623-2.387-15.521-48.289-28.227-52.914    c-12.932-4.709-43.876,29.195-55.633,22.393c-11.867-6.865,2.09-50.629-8.347-59.395c-10.466-8.793-51.15,12.516-59.942,2.049    c-8.766-10.438,19.248-46.814,12.382-58.682c-6.802-11.756-52.328-5.615-57.036-18.545c-4.625-12.707,34.158-37.246,31.771-50.867    c-2.319-13.246-47.199-23.08-47.199-36.99s44.88-23.744,47.199-36.99c2.387-13.621-36.396-38.162-31.771-50.868    c4.708-12.932,50.234-6.79,57.037-18.546c6.865-11.866-21.147-48.244-12.382-58.681c8.792-10.467,49.476,10.841,59.942,2.05    c10.437-8.766-3.521-52.529,8.347-59.395c11.757-6.802,42.701,27.101,55.633,22.394c12.706-4.626,14.604-50.528,28.226-52.914    c13.246-2.32,30.669,40.141,44.58,40.141s31.333-42.46,44.58-40.141c13.623,2.385,15.52,48.288,28.226,52.914    c12.933,4.708,43.876-29.195,55.633-22.393C568.911,293.048,554.954,336.812,565.39,345.578z" fill="#FFFFFF"/>
		<path d="M442.168,484.588v-76.376c12.631,5.469,20.443,15.889,23.44,31.253l49.42-6.445c-3.388-19.535-11.201-35.127-23.44-46.784    c-12.241-11.653-28.715-18.719-49.42-21.194v-19.338h-28.323v19.338c-22.399,2.217-40.337,10.582-53.815,25.102    c-13.478,14.521-20.217,32.46-20.217,53.814c0,21.098,5.957,39.037,17.873,53.816c11.916,14.781,30.635,25.818,56.159,33.109    v81.846c-7.032-3.385-13.414-8.854-19.144-16.408c-5.731-7.551-9.639-16.537-11.721-26.957l-50.982,5.471    c3.906,25.656,12.893,45.514,26.956,59.576c14.064,14.064,32.359,22.465,54.891,25.199v35.551h28.323v-36.527    c25.395-3.645,45.222-13.541,59.479-29.689c14.26-16.146,21.39-36.008,21.39-59.578c0-21.098-5.665-38.385-16.994-51.863    C494.713,504.023,473.422,493.055,442.168,484.588z M413.844,475.211c-8.468-3.645-14.781-8.43-18.947-14.357    c-4.17-5.924-6.251-12.336-6.251-19.24c0-7.551,2.276-14.455,6.837-20.706c4.557-6.251,10.676-10.676,18.361-13.283V475.211z     M466,601.887c-6.123,7.229-14.063,11.754-23.831,13.576v-76.182c11.721,3.387,20.15,8.238,25.297,14.553    c5.143,6.318,7.716,13.84,7.716,22.562C475.18,586.162,472.119,594.66,466,601.887z" fill="#FFFFFF"/>
	</g>
</g>
<g>
</g>
<g>
</g>
<g>
</g>
<g>
</g>
<g>
</g>
<g>
</g>
<g>
</g>
<g>
</g>
<g>
</g>
<g>
</g>
<g>
</g>
<g>
</g>
<g>
</g>
<g>
</g>
<g>
</g>
</svg>
